<svg xmlns="http://www.w3.org/2000/svg" width="183" height="73" viewBox="0 0 183 73">
    <g fill="none" fill-rule="evenodd">
        <path fill="#FFF" d="M.075 71.925h182.806V.075H.075z"/>
        <path fill="#6B64F6" d="M27.563 51.894a18.125 18.125 0 0 0 16.96 0 .27.27 0 0 0 .063-.43l-8.254-8.234a.409.409 0 0 0-.577 0l-8.254 8.234a.27.27 0 0 0 .062.43M51.976 44.46a18.001 18.001 0 0 0 0-16.92.272.272 0 0 0-.43-.061l-8.255 8.233a.406.406 0 0 0 0 .576l8.254 8.233a.272.272 0 0 0 .431-.062M20.11 27.54a18.001 18.001 0 0 0 0 16.92c.086.16.303.19.432.061l8.253-8.233a.406.406 0 0 0 0-.575l-8.253-8.234a.272.272 0 0 0-.431.062M50.669 26.039a.405.405 0 0 0 .045-.522 18.126 18.126 0 0 0-1.911-2.245c-5.75-5.736-14.416-6.791-21.24-3.166a.27.27 0 0 0-.061.43l14.053 14.02c.16.158.417.158.577 0l8.537-8.517z"/>
        <path fill="#FFD100" d="M40.395 35.712L26.058 21.411a.407.407 0 0 0-.524-.045 18.157 18.157 0 0 0-4.161 4.15.405.405 0 0 0 .045.523L31.404 36l-9.935 9.91a.493.493 0 0 0-.048.64 18.12 18.12 0 0 0 4.046 4.036.496.496 0 0 0 .642-.047L36.332 40.34l.773-.772 2.586-2.58.704-.701a.406.406 0 0 0 0-.576"/>
        <path fill="#6B64F6" d="M53.93 49.908l-3.945 3.934a.493.493 0 0 1-.695 0L37.492 42.073a.406.406 0 0 1 0-.575l4.063-4.053a.408.408 0 0 1 .577 0l11.797 11.769a.49.49 0 0 1 0 .694"/>
        <path fill="#23005B" d="M90.02 30.905h2.41c.136 0 .246.11.246.245v8.015c0 2.838 1.577 4.467 4.394 4.467 1.352 0 2.478-.421 3.351-1.264.873-.815 1.296-1.883 1.296-3.203V31.15c0-.136.11-.245.245-.245h2.41c.136 0 .246.11.246.245v14.4c0 .136-.11.246-.246.246h-2.353a.245.245 0 0 1-.246-.245v-1.413h-.056c-1.16 1.355-3.088 2.086-5.384 2.079a6.583 6.583 0 0 1-6.558-6.582V31.15c0-.136.11-.245.245-.245M107.707 30.905h2.41c.135 0 .245.11.245.245v14.4c0 .136-.11.246-.245.246h-2.41a.245.245 0 0 1-.246-.245V31.15c0-.136.11-.245.246-.245m-.198-5.62h2.693c.135 0 .245.11.245.246v2.544c0 .135-.11.245-.245.245h-2.693a.245.245 0 0 1-.245-.245v-2.544c0-.136.11-.245.245-.245M131.602 30.905h2.41c.135 0 .245.11.245.245v8.015c0 2.838 1.578 4.467 4.394 4.467 1.352 0 2.479-.421 3.352-1.264.873-.815 1.295-1.883 1.295-3.203V31.15c0-.136.11-.245.246-.245h2.41c.136 0 .245.11.245.245v14.4c0 .136-.11.246-.245.246H143.6a.245.245 0 0 1-.245-.245v-1.413h-.057c-1.16 1.355-3.088 2.086-5.384 2.079a6.583 6.583 0 0 1-6.558-6.582V31.15c0-.136.11-.245.246-.245M156.957 33.04c-2.816 0-5.013 1.939-5.013 4.299v2.023c0 2.36 2.14 4.298 4.929 4.298 3.041 0 5.182-2.135 5.182-5.31 0-3.23-2.056-5.31-5.098-5.31m-7.669-2.135h2.354c.136 0 .246.11.246.245v1.44h.056c1.154-1.32 3.042-2.107 5.295-2.107 4.365 0 7.717 3.4 7.717 7.867.084 4.411-3.436 7.951-7.802 7.867-2.14 0-4.112-.815-5.154-2.023h-.056v7.678c0 .135-.11.245-.246.245h-2.41a.245.245 0 0 1-.245-.245V31.15c0-.136.11-.245.245-.245M115.535 38.35c0 3.175 2.14 5.31 5.182 5.31 2.788 0 4.929-1.938 4.929-4.298v-2.023c0-2.36-2.197-4.299-5.013-4.299-3.042 0-5.098 2.08-5.098 5.31m13.012-7.2v20.722c0 .135-.11.245-.245.245h-2.41a.245.245 0 0 1-.246-.245v-7.678h-.056c-1.042 1.208-3.014 2.023-5.154 2.023-4.366.084-7.887-3.456-7.802-7.867 0-4.467 3.351-7.867 7.717-7.867 2.253 0 4.14.787 5.295 2.108h.056V31.15c0-.136.11-.245.246-.245h2.354c.135 0 .245.11.245.245M77.474 43.484c-4.197 0-7.126-3.035-7.126-7.53s2.93-7.53 7.126-7.53c4.225 0 7.154 3.035 7.154 7.53 0 1.93-.541 3.59-1.492 4.856l-4.57-4.559a.246.246 0 0 0-.347 0L76.668 37.8a.244.244 0 0 0 0 .346l4.446 4.435c-1.04.583-2.272.904-3.64.904m10.224-7.53c.084-5.816-4.281-10.367-10.224-10.255-5.886-.112-10.28 4.44-10.196 10.255-.084 5.816 4.31 10.367 10.196 10.255 2.158.04 4.107-.536 5.711-1.563l1.546 1.542a.246.246 0 0 0 .347 0l1.551-1.547a.244.244 0 0 0 0-.346l-1.404-1.4c1.591-1.816 2.512-4.242 2.473-6.941"/>
    </g>
</svg>
